<svg xmlns="http://www.w3.org/2000/svg" viewBox="0 16.319231033325195 39.060001373291016 34.02077102661133" data-asc="0.896484375" width="39.060001373291016" height="34.02077102661133"><defs/><g fill="#000000"><g transform="translate(0, 0)"><path d="M14.23 48.80Q14.23 50.34 13.16 50.34Q12.57 50.34 12.11 49.95Q11.01 49.00 11.01 46.98Q11.01 44.97 11.29 42.87Q11.57 40.77 12.99 35.25Q10.74 35.52 9.57 35.57Q5.69 42.09 1.56 46.90Q1.25 47.19 0.65 47.18Q0.05 47.17 0 46.78Q0 46.36 0.71 45.31Q1.42 44.26 1.54 44.12L6.98 35.57Q3.25 35.55 2.39 35.18Q1.54 34.81 1.54 34.01Q1.54 33.64 2.08 33.54Q6.08 33.15 8.62 32.96L14.06 23.93L15.63 17.21Q15.82 16.33 16.58 16.32Q17.33 16.31 17.90 16.43Q19.60 16.82 19.60 17.99Q19.60 18.16 18.80 21.75Q17.99 25.34 16.04 32.50Q18.07 32.40 21.41 32.40Q21.66 32.42 21.97 32.87Q22.29 33.33 22.31 34.08Q22.29 34.59 20.29 34.66Q18.29 34.72 15.38 34.99Q12.74 45.17 12.74 46.66Q12.79 47.05 13.50 47.73Q14.21 48.29 14.23 48.80M11.65 31.88L11.16 32.79L13.65 32.62Q14.11 30.54 14.33 29.00Q14.26 28.34 13.22 29.63Q12.18 30.91 11.65 31.88ZM30.10 28.88Q26.20 29.54 23.29 34.01Q20.46 38.35 20.31 42.60Q25.90 35.23 30.10 28.88M28.98 26.81L30.42 27.00Q30.76 27.00 31.14 26.61Q31.52 26.22 32.12 26.22Q32.71 26.22 33.07 26.54Q33.42 26.86 33.42 27.09Q33.42 27.32 33.18 27.86Q32.93 28.39 32.89 28.56Q29.64 38.75 29.64 41.55Q29.66 42.53 30.08 42.55Q31.57 42.55 34.74 38.65Q36.87 36.04 37.49 34.81Q38.11 33.59 38.48 33.52Q38.55 33.52 38.60 33.50Q39.04 33.54 39.06 34.01Q39.06 34.89 37.04 37.96Q32.71 44.56 29.57 44.56Q27.29 44.56 27.29 41.38Q27.29 39.87 27.91 37.61Q28.52 35.35 28.64 34.79Q28.08 35.52 24.88 40.11Q21.68 44.70 20.29 45.53Q19.85 45.78 19.53 45.80Q18.14 45.80 17.50 44.70Q17.21 44.17 17.20 43.15Q17.19 42.14 18.70 38.48Q21.14 32.57 24.24 29.37Q26.68 26.88 28.98 26.81Z"/></g></g></svg>