<svg xmlns="http://www.w3.org/2000/svg" viewBox="0 19.459999084472656 275.3399963378906 47.95000457763672" data-asc="1.18994140625" width="275.3399963378906" height="47.95000457763672"><defs/><g fill="#000000"><g transform="translate(0, 0)"><path d="M0 20.51L3.96 20.51L25.24 35.69L25.24 20.51L38.99 20.51L38.99 59.50L33.74 59.50L13.70 46.09L13.70 59.50L0 59.50L0 20.51ZM65.97 37.79Q65.48 37.55 64.71 37.55Q63.94 37.55 63.01 38.00Q62.08 38.45 61.18 39.23Q59.28 40.89 57.98 43.26Q56.69 45.63 56.69 47.62Q56.69 49.61 58.20 50.29Q58.74 50.54 59.52 50.54Q60.30 50.54 61.16 50.06Q62.01 49.58 62.87 48.78Q64.65 47.09 65.99 44.69Q67.33 42.29 67.33 40.38Q67.33 38.48 65.97 37.79M61.23 60.40Q54.25 60.40 49.19 55.98Q43.80 51.29 43.80 44.18Q43.80 37.06 48.85 32.53Q53.91 28.00 61.33 28.00Q68.75 28.00 73.80 32.43Q78.86 36.87 78.88 44.29Q78.91 49.05 76.46 52.71Q74.02 56.37 69.95 58.37Q65.87 60.38 61.23 60.40ZM106.64 57.30Q102.00 60.45 96.81 60.45Q91.63 60.45 88.38 57.51Q85.13 54.57 85.13 49.58L85.13 36.89L82.35 36.89L82.35 29.15L85.13 29.15L85.13 20.95L99.73 19.46L99.73 29.15L106.64 29.15L106.64 36.89L99.73 36.89L99.73 44.56Q99.73 48.00 101.28 49.55Q102.83 51.10 106.64 51.10L106.64 57.30ZM130.98 37.84Q130.98 35.69 128.98 35.69Q126.68 35.91 126.00 38.06Q125.66 39.09 125.52 40.44Q125.39 41.80 125.12 43.33L130.47 42.14L130.93 38.40L130.98 37.84M127.69 48.95Q127.69 48.95 126.34 48.95Q125.71 48.95 125.12 48.90Q125.12 51.81 128.22 52.08Q129.08 52.15 129.88 52.15Q131.96 52.15 135.10 51.20Q138.23 50.24 140.72 48.10L142.24 55.69Q136.79 60.40 125.78 60.40Q119.46 60.40 114.92 56.71Q109.99 52.69 109.99 45.56Q109.99 40.19 112.77 35.91Q115.36 32.01 119.78 29.98Q124.19 27.95 129.32 27.95Q135.96 27.95 139.37 30.86Q142.77 33.76 142.76 38.04Q142.75 42.31 138.67 45.63Q134.59 48.95 127.69 48.95ZM145.73 59.50L165.11 22.49Q166.11 20.51 168.80 19.85Q169.58 19.65 170.73 19.65Q171.88 19.65 173.23 20.30Q174.58 20.95 175.37 22.34L196.17 59.50L176.37 59.50L174.83 55.64L164.28 55.64L162.96 59.50L145.73 59.50M165.48 47.90L173.36 47.90L169.63 37.35L165.48 47.90ZM235.18 40.26Q235.16 47.24 230.57 52.71Q227.15 56.79 221.26 58.52Q218.21 59.42 214.33 59.50L214.33 67.41L199.83 67.41L199.83 29.15L207.84 29.15L211.23 33.84Q216.70 28.00 222.73 28.00Q228.76 28.00 231.97 31.47Q235.18 34.94 235.18 40.26M221.63 38.28Q221.12 38.09 220.36 38.09Q218.82 38.09 217.05 39.86Q215.28 41.63 214.33 43.90L214.33 50.90Q214.75 50.61 215.56 50.11Q216.38 49.61 217.36 48.90Q223.12 44.80 223.12 40.55Q223.12 38.84 221.63 38.28ZM275.34 40.26Q275.32 47.24 270.73 52.71Q267.31 56.79 261.43 58.52Q258.37 59.42 254.49 59.50L254.49 67.41L239.99 67.41L239.99 29.15L248.00 29.15L251.39 33.84Q256.86 28.00 262.89 28.00Q268.92 28.00 272.13 31.47Q275.34 34.94 275.34 40.26M261.79 38.28Q261.28 38.09 260.52 38.09Q258.98 38.09 257.21 39.86Q255.44 41.63 254.49 43.90L254.49 50.90Q254.91 50.61 255.73 50.11Q256.54 49.61 257.52 48.90Q263.28 44.80 263.28 40.55Q263.28 38.84 261.79 38.28Z"/></g></g></svg>