<svg xmlns="http://www.w3.org/2000/svg" viewBox="0 9.859999656677246 393.4100036621094 44.89999771118164" data-asc="0.91357421875" width="393.4100036621094" height="44.89999771118164"><defs/><g fill="#000000"><g transform="translate(0, 0)"><path d="M20.51 45.68L20.51 33.54L6.49 33.54L0 27.05L0 19.75L6.49 13.28L10.16 13.28L10.16 24.78L25.05 24.78L31.32 31.27L31.32 39.21L24.85 45.68L20.51 45.68M20.51 22.36L20.51 19.12L11.87 19.12L11.87 13.28L24.83 13.28L30.44 18.92L30.44 22.36L20.51 22.36M5.44 45.68L0 39.21L0 35.96L10.79 35.96L10.79 39.82L18.80 39.82L18.80 45.68L5.44 45.68ZM43.26 45.68L36.77 39.21L36.77 26.22L34.62 26.22L34.62 19.75L36.77 19.75L36.77 16.94L47.56 13.28L47.56 39.21L54.69 39.21L54.69 45.68L43.26 45.68M49.27 26.22L49.27 19.75L55.08 19.75L55.08 26.22L49.27 26.22ZM65.21 45.68L58.74 39.21L58.74 26.22L65.21 19.75L72.46 19.75L72.46 26.22L69.65 26.22L69.65 39.62L72.46 39.62L72.46 45.68L65.21 45.68M74.17 45.68L74.17 39.62L76.86 39.62L76.86 26.22L74.17 26.22L74.17 19.75L81.40 19.75L87.87 26.22L87.87 39.21L81.40 45.68L74.17 45.68ZM98.97 45.68L92.50 39.21L92.50 26.22L98.97 19.75L103.30 19.75L103.30 45.68L98.97 45.68M109.79 30.10L109.79 26.22L105.00 26.22L105.00 19.75L114.11 19.75L120.58 26.22L120.58 30.10L109.79 30.10M105.00 45.68L105.00 39.62L109.79 39.62L109.79 36.38L120.58 36.38L120.58 39.21L114.11 45.68L105.00 45.68ZM125.02 45.68L125.02 9.86L135.82 9.86L135.82 45.68L125.02 45.68M137.50 42.02L137.50 27.22L142.48 19.75L153.64 19.75L137.50 42.02M142.48 45.68L140.70 40.45L147.07 31.86L154.20 45.68L142.48 45.68ZM176.61 45.68L157.40 13.28L168.87 13.28L177.56 27.69L184.40 15.97L184.40 32.28L176.61 45.68M185.99 45.68L185.99 13.28L196.78 13.28L196.78 45.68L185.99 45.68M157.37 45.68L157.37 16.28L167.46 33.20L167.46 45.68L157.37 45.68ZM219.26 45.68L219.26 26.22L203.91 26.22L203.91 23.00L207.15 19.75L223.34 19.75L229.81 26.22L229.81 45.68L219.26 45.68M206.08 45.68L201.73 41.41L201.73 34.91L206.08 30.59L217.55 30.59L217.55 35.08L211.99 35.08L211.99 39.62L217.55 39.62L217.55 42.48L214.33 45.68L206.08 45.68ZM251.95 45.68L251.95 26.22L247.31 26.22L247.31 23.39L250.93 19.75L256.93 19.75L262.77 25.59L262.77 45.68L251.95 45.68M234.67 45.68L234.67 19.75L245.56 19.75L245.56 45.68L234.67 45.68ZM284.86 45.68L284.86 26.22L269.51 26.22L269.51 23.00L272.75 19.75L288.94 19.75L295.41 26.22L295.41 45.68L284.86 45.68M271.68 45.68L267.33 41.41L267.33 34.91L271.68 30.59L283.15 30.59L283.15 35.08L277.59 35.08L277.59 39.62L283.15 39.62L283.15 42.48L279.93 45.68L271.68 45.68ZM307.42 54.76L304.17 51.49L304.17 49.10L317.33 49.10L317.33 26.22L312.55 26.22L312.55 19.75L321.66 19.75L328.13 26.22L328.13 48.24L321.66 54.76L307.42 54.76M306.52 45.68L300.05 39.21L300.05 26.22L306.52 19.75L310.84 19.75L310.84 39.62L315.63 39.62L315.63 42.48L312.40 45.68L306.52 45.68ZM339.23 45.68L332.76 39.21L332.76 26.22L339.23 19.75L343.55 19.75L343.55 45.68L339.23 45.68M345.26 35.28L345.26 30.76L350.95 30.76L350.95 26.22L345.26 26.22L345.26 19.75L354.42 19.75L360.89 26.22L360.89 35.28L345.26 35.28M345.26 45.68L345.26 39.62L359.77 39.62L359.77 42.43L356.54 45.68L345.26 45.68ZM365.48 45.68L365.48 19.75L376.27 19.75L376.27 45.68L365.48 45.68M382.59 32.52L382.59 26.22L378.00 26.22L378.00 23.39L381.62 19.75L388.16 19.75L393.41 25.81L393.41 32.52L382.59 32.52Z"/></g></g></svg>